<svg id="Layer_1" data-name="Layer 1" xmlns="http://www.w3.org/2000/svg" viewBox="0 0 699.36 432.91"><title>Artboard 4 copy 4</title><path d="M560.31,278.52S571.63,173.18,455,173.24H356.89v89.17H460.4v125h99.91Z" style="fill:#ed1c24"/><path d="M569,267.51H686.86V174.94H573.61V62.71H464.12V168C561.52,167.8,567.57,241.1,569,267.51Z" style="fill:#00a99d"/><path d="M340.56,180a173,173,0,0,0-45.94,7.88,153.66,153.66,0,0,0-43.54,22.22l-1.21.89c-.6-.44-1.21-.44-1.21-.89a171.7,171.7,0,0,0-43.55-22.22,173,173,0,0,0-52-8c-20,0-39.91,4.89-58.66,18.66V183.86H18.86V387.41H94.45V278.52c0-23.56,26.61-44.44,58.66-44.44s58.66,20.44,58.66,44.44V387.41h75.6v-82c0-22.49,23.37-41.86,53.19-44.2Z" style="fill:#999"/></svg>